# xmcd CD database file
#
# Track frame offsets:
#	150
#	43862
#	64562
#	99212
#	130487
#	176612
#	205787
#	234587
#	263012
#
# Disc length: 3896 seconds
#
# Revision: 1
# Processed by: cddbd v1.5.1PL0 Copyright (c) Steve Scherf et al.
# Submitted via: CDex 1.51
#
DISCID=760f3609
DTITLE=Franz Koglmann - The Use Of Memory
DYEAR=1990
DGENRE=Jazz
TTITLE0=Chateau de bouges
TTITLE1=For Max
TTITLE2=The use of memory: Bix, Miles and Chet
TTITLE3=Das Rätsel eines Tages
TTITLE4=Der Vogel
TTITLE5=Uccello
TTITLE6=Monoblue
TTITLE7=Die Kühle, der Duft, der Ganz
TTITLE8=Constantin's Dream
EXTD=YEAR: 1990
EXTT0=
EXTT1=
EXTT2=
EXTT3=
EXTT4=
EXTT5=
EXTT6=
EXTT7=
EXTT8=
PLAYORDER=
